<svg width="318" height="185" viewBox="0 0 318 185" fill="none" xmlns="http://www.w3.org/2000/svg">
<g clip-path="url(#clip0_3781_20985)">
<g clip-path="url(#clip1_3781_20985)">
<path fill-rule="evenodd" clip-rule="evenodd" d="M15 13H0V12H318V13H304V44H318V45H304V76H318V77H304V108H318V109H304V140H318V141H304V172H318V173H0V172H15L15 141H0V140H15L15 109H0V108H15L15 77H0V76H15L15 45H0V44H15L15 13ZM16 13L16 44H47V13H16ZM48 13V44H79V13H48ZM80 13V44H111V13H80ZM112 13V44H143V13H112ZM144 13V44H175V13H144ZM176 13V44H207V13H176ZM208 13V44H239V13H208ZM240 13V44H271V13H240ZM272 13V44H303V13H272ZM303 45H272V76H303V45ZM303 77H272V108H303V77ZM303 109H272V140H303V109ZM303 141H272V172H303V141ZM271 172V141H240V172H271ZM239 172V141H208V172H239ZM207 172V141H176V172H207ZM175 172V141H144V172H175ZM143 172V141H112V172H143ZM111 172V141H80V172H111ZM79 172V141H48V172H79ZM47 172V141H16L16 172H47ZM16 140H47L47 109H16L16 140ZM16 108H47V77H16L16 108ZM16 76H47L47 45H16L16 76ZM48 45L48 76H79V45H48ZM80 45V76H111V45H80ZM112 45V76H143V45H112ZM144 45V76H175V45H144ZM176 45V76H207V45H176ZM208 45V76H239V45H208ZM240 45V76H271V45H240ZM271 77H240V108H271V77ZM271 109H240V140H271V109ZM239 140V109H208V140H239ZM207 140V109H176V140H207ZM175 140V109H144V140H175ZM143 140V109H112V140H143ZM111 140V109H80V140H111ZM79 140V109H48L48 140H79ZM48 108H79L79 77H48V108ZM80 77L80 108H111L111 77H80ZM112 77L112 108H143V77H112ZM144 77V108H175V77H144ZM176 77V108H207V77H176ZM208 77V108H239V77H208Z" fill="url(#paint0_linear_3781_20985)" fill-opacity="0.1"/>
<path d="M104 65L159 89V156L104 132V65Z" fill="#2B2525"/>
<path d="M104 65L159 89V156L104 132V65Z" fill="url(#paint1_linear_3781_20985)" fill-opacity="0.08"/>
<path d="M104 65L159 89V156L104 132V65Z" stroke="url(#paint2_linear_3781_20985)" stroke-opacity="0.3" stroke-width="0.5"/>
<path d="M159 41L214 65L159 89V41Z" fill="#292626"/>
<path d="M159 41L214 65L159 89V41Z" fill="url(#paint3_linear_3781_20985)" fill-opacity="0.16"/>
<path d="M159 41L214 65L159 89V41Z" stroke="url(#paint4_linear_3781_20985)" stroke-opacity="0.3" stroke-width="0.5"/>
<path d="M159 41V89L104 65L159 41Z" fill="#292626"/>
<path d="M159 41V89L104 65L159 41Z" fill="url(#paint5_linear_3781_20985)" fill-opacity="0.16"/>
<path d="M159 41V89L104 65L159 41Z" stroke="url(#paint6_linear_3781_20985)" stroke-opacity="0.3" stroke-width="0.5"/>
<path d="M214 65L159 89V156L214 132V65Z" fill="#2B2525"/>
<path d="M214 65L159 89V156L214 132V65Z" fill="url(#paint7_linear_3781_20985)" fill-opacity="0.08"/>
<path d="M214 65L159 89V156L214 132V65Z" stroke="url(#paint8_linear_3781_20985)" stroke-opacity="0.3" stroke-width="0.5"/>
<path fill-rule="evenodd" clip-rule="evenodd" d="M214 65L241.5 53L186.5 29L159 41L131.5 29L76.5 53L104 65L76.5 77L131.5 101L159 89L186.5 101L241.5 77L214 65ZM214 65L159 89L104 65L159 41L214 65Z" fill="#2B2525"/>
<path fill-rule="evenodd" clip-rule="evenodd" d="M214 65L241.5 53L186.5 29L159 41L131.5 29L76.5 53L104 65L76.5 77L131.5 101L159 89L186.5 101L241.5 77L214 65ZM214 65L159 89L104 65L159 41L214 65Z" fill="url(#paint9_linear_3781_20985)" fill-opacity="0.08"/>
<path d="M241.5 53L241.6 53.2291L242.125 53L241.6 52.7709L241.5 53ZM186.5 29L186.6 28.7709L186.5 28.7272L186.4 28.7709L186.5 29ZM131.5 29L131.6 28.7709L131.5 28.7272L131.4 28.7709L131.5 29ZM76.5 53L76.4 52.7709L75.8749 53L76.4 53.2291L76.5 53ZM76.5 77L76.4 76.7709L75.8749 77L76.4 77.2291L76.5 77ZM131.5 101L131.4 101.229L131.5 101.273L131.6 101.229L131.5 101ZM186.5 101L186.4 101.229L186.5 101.273L186.6 101.229L186.5 101ZM241.5 77L241.6 77.2291L242.125 77L241.6 76.7709L241.5 77ZM241.4 52.7709L213.9 64.7709L214.1 65.2291L241.6 53.2291L241.4 52.7709ZM186.4 29.2291L241.4 53.2291L241.6 52.7709L186.6 28.7709L186.4 29.2291ZM159.1 41.2291L186.6 29.2291L186.4 28.7709L158.9 40.7709L159.1 41.2291ZM159.1 40.7709L131.6 28.7709L131.4 29.2291L158.9 41.2291L159.1 40.7709ZM131.4 28.7709L76.4 52.7709L76.6 53.2291L131.6 29.2291L131.4 28.7709ZM76.4 53.2291L103.9 65.2291L104.1 64.7709L76.6 52.7709L76.4 53.2291ZM103.9 64.7709L76.4 76.7709L76.6 77.2291L104.1 65.2291L103.9 64.7709ZM76.4 77.2291L131.4 101.229L131.6 100.771L76.6 76.7709L76.4 77.2291ZM131.6 101.229L159.1 89.2291L158.9 88.7709L131.4 100.771L131.6 101.229ZM158.9 89.2291L186.4 101.229L186.6 100.771L159.1 88.7709L158.9 89.2291ZM186.6 101.229L241.6 77.2291L241.4 76.7709L186.4 100.771L186.6 101.229ZM241.6 76.7709L214.1 64.7709L213.9 65.2291L241.4 77.2291L241.6 76.7709ZM213.9 64.7709L158.9 88.7709L159.1 89.2291L214.1 65.2291L213.9 64.7709ZM159.1 88.7709L104.1 64.7709L103.9 65.2291L158.9 89.2291L159.1 88.7709ZM104.1 65.2291L159.1 41.2291L158.9 40.7709L103.9 64.7709L104.1 65.2291ZM214.1 64.7709L159.1 40.7709L158.9 41.2291L213.9 65.2291L214.1 64.7709Z" fill="url(#paint10_linear_3781_20985)" fill-opacity="0.3"/>
<mask id="mask0_3781_20985" style="mask-type:alpha" maskUnits="userSpaceOnUse" x="75" y="28" width="168" height="61">
<path fill-rule="evenodd" clip-rule="evenodd" d="M131.5 28.5H186.5L241.5 52.5L214 64.5L159 88.5L104 64.5L76.5 52.5L131.5 28.5Z" fill="#2B2525"/>
<path fill-rule="evenodd" clip-rule="evenodd" d="M131.5 28.5H186.5L241.5 52.5L214 64.5L159 88.5L104 64.5L76.5 52.5L131.5 28.5Z" fill="url(#paint11_linear_3781_20985)" fill-opacity="0.08"/>
<path d="M186.5 28.5L186.6 28.2709L186.552 28.25H186.5V28.5ZM131.5 28.5V28.25H131.448L131.4 28.2709L131.5 28.5ZM241.5 52.5L241.6 52.7291L242.125 52.5L241.6 52.2709L241.5 52.5ZM159 88.5L158.9 88.7291L159 88.7728L159.1 88.7291L159 88.5ZM76.5 52.5L76.4 52.2709L75.8749 52.5L76.4 52.7291L76.5 52.5ZM186.5 28.25H131.5V28.75H186.5V28.25ZM186.4 28.7291L241.4 52.7291L241.6 52.2709L186.6 28.2709L186.4 28.7291ZM241.4 52.2709L213.9 64.2709L214.1 64.7291L241.6 52.7291L241.4 52.2709ZM159.1 88.7291L214.1 64.7291L213.9 64.2709L158.9 88.2709L159.1 88.7291ZM103.9 64.7291L158.9 88.7291L159.1 88.2709L104.1 64.2709L103.9 64.7291ZM104.1 64.2709L76.6 52.2709L76.4 52.7291L103.9 64.7291L104.1 64.2709ZM76.6 52.7291L131.6 28.7291L131.4 28.2709L76.4 52.2709L76.6 52.7291Z" fill="url(#paint12_linear_3781_20985)" fill-opacity="0.3"/>
</mask>
<g mask="url(#mask0_3781_20985)">
<rect x="131" y="37" width="56" height="56" rx="28" fill="#2B2525"/>
<rect x="131" y="37" width="56" height="56" rx="28" fill="url(#paint13_linear_3781_20985)" fill-opacity="0.08"/>
<path d="M174.915 61.6745C175.758 59.1776 175.468 56.4425 174.12 54.1714C172.092 50.688 168.016 48.8959 164.036 49.7392C162.265 47.7706 159.72 46.6511 157.053 46.6672C152.984 46.658 149.374 49.2431 148.122 53.0633C145.508 53.5916 143.251 55.2061 141.931 57.4944C139.888 60.9686 140.354 65.3481 143.083 68.3273C142.24 70.8241 142.53 73.5593 143.879 75.8304C145.906 79.3138 149.982 81.1059 153.963 80.2626C155.733 82.2312 158.278 83.3507 160.945 83.3335C165.017 83.3438 168.628 80.7564 169.88 76.9327C172.494 76.4045 174.75 74.7899 176.071 72.5017C178.111 69.0274 177.644 64.6514 174.916 61.6722L174.915 61.6745ZM160.948 80.9375C159.319 80.9398 157.74 80.3772 156.49 79.347C156.547 79.3172 156.645 79.2634 156.709 79.2244L164.109 75.0077C164.487 74.7957 164.72 74.3981 164.717 73.9684V63.6751L167.844 65.4569C167.878 65.473 167.9 65.5051 167.905 65.5417V74.0658C167.9 77.8563 164.789 80.9295 160.948 80.9375ZM145.986 74.6318C145.17 73.2407 144.876 71.6102 145.156 70.0278C145.211 70.0598 145.307 70.1183 145.375 70.1572L152.775 74.374C153.15 74.5906 153.614 74.5906 153.991 74.374L163.024 69.2268V72.7904C163.026 72.8271 163.009 72.8626 162.98 72.8855L155.5 77.147C152.169 79.0399 147.914 77.9147 145.987 74.6318H145.986ZM144.039 58.6941C144.852 57.3007 146.135 56.2351 147.663 55.6816C147.663 55.7446 147.66 55.8558 147.66 55.9337V64.3684C147.657 64.7969 147.89 65.1945 148.267 65.4065L157.3 70.5526L154.173 72.3344C154.142 72.355 154.102 72.3584 154.067 72.3435L146.587 68.0787C143.262 66.1788 142.122 61.9816 144.038 58.6952L144.039 58.6941ZM169.733 64.5941L160.699 59.4469L163.827 57.6663C163.858 57.6456 163.897 57.6422 163.932 57.6571L171.413 61.9185C174.743 63.8172 175.885 68.0214 173.961 71.3077C173.147 72.6988 171.865 73.7644 170.338 74.319V65.6323C170.341 65.2037 170.11 64.8072 169.734 64.5941H169.733ZM172.845 59.9717C172.79 59.9385 172.694 59.8812 172.625 59.8422L165.226 55.6255C164.851 55.4089 164.386 55.4089 164.01 55.6255L154.977 60.7727V57.2091C154.974 57.1724 154.992 57.1369 155.021 57.1139L162.5 52.8559C165.832 50.9595 170.091 52.0882 172.012 55.3768C172.824 56.7656 173.118 58.3916 172.842 59.9717H172.845ZM153.277 66.3232L150.148 64.5414C150.114 64.5254 150.092 64.4933 150.088 64.4566V55.9326C150.09 52.1375 153.21 49.062 157.056 49.0643C158.683 49.0643 160.258 49.6281 161.509 50.6547C161.452 50.6845 161.354 50.7384 161.289 50.7774L153.89 54.9941C153.511 55.2061 153.279 55.6026 153.281 56.0323L153.277 66.3209V66.3232ZM154.975 62.7092L158.999 60.4163L163.023 62.708V67.2926L158.999 69.5843L154.975 67.2926V62.7092Z" fill="url(#paint14_linear_3781_20985)"/>
<rect x="131.25" y="37.25" width="55.5" height="55.5" rx="27.75" stroke="url(#paint15_linear_3781_20985)" stroke-opacity="0.3" stroke-width="0.5"/>
</g>
<rect x="104" y="149" width="110" height="20" rx="10" fill="#2B2525"/>
<rect x="104" y="149" width="110" height="20" rx="10" fill="url(#paint16_linear_3781_20985)" fill-opacity="0.08"/>
<path opacity="0.6" d="M120.851 162V156.136H122.523C123.835 156.136 124.723 156.576 124.723 157.864C124.723 159.096 123.843 159.672 122.555 159.672H121.595V162H120.851ZM121.595 159.072H122.467C123.491 159.072 123.987 158.696 123.987 157.864C123.987 157.008 123.467 156.744 122.427 156.744H121.595V159.072ZM127.295 162.112C126.223 162.112 125.279 161.272 125.279 159.84C125.279 158.384 126.223 157.552 127.295 157.552C128.359 157.552 129.303 158.384 129.303 159.84C129.303 161.272 128.359 162.112 127.295 162.112ZM127.295 161.504C128.047 161.504 128.551 160.832 128.551 159.84C128.551 158.832 128.047 158.16 127.295 158.16C126.535 158.16 126.031 158.832 126.031 159.84C126.031 160.832 126.535 161.504 127.295 161.504ZM131.092 162L129.876 157.656H130.62L131.276 160.176C131.364 160.592 131.444 160.976 131.524 161.384H131.564C131.66 160.976 131.748 160.584 131.86 160.176L132.532 157.656H133.244L133.932 160.176C134.036 160.592 134.132 160.976 134.236 161.384H134.268C134.356 160.976 134.436 160.592 134.54 160.176L135.172 157.656H135.868L134.7 162H133.812L133.18 159.664C133.068 159.248 132.988 158.856 132.884 158.408H132.844C132.756 158.856 132.668 159.256 132.548 159.672L131.94 162H131.092ZM138.515 162.112C137.355 162.112 136.435 161.264 136.435 159.84C136.435 158.424 137.387 157.552 138.387 157.552C139.491 157.552 140.115 158.344 140.115 159.592C140.115 159.744 140.107 159.896 140.083 160.008H137.155C137.211 160.928 137.771 161.528 138.603 161.528C139.019 161.528 139.363 161.392 139.683 161.176L139.947 161.664C139.563 161.912 139.107 162.112 138.515 162.112ZM137.147 159.48H139.475C139.475 158.608 139.083 158.136 138.395 158.136C137.787 158.136 137.243 158.624 137.147 159.48ZM141.193 162V157.656H141.785L141.857 158.448H141.881C142.177 157.896 142.625 157.552 143.113 157.552C143.305 157.552 143.433 157.576 143.577 157.64L143.441 158.28C143.289 158.232 143.193 158.208 143.017 158.208C142.657 158.208 142.209 158.472 141.921 159.216V162H141.193ZM145.937 162.112C144.777 162.112 143.857 161.264 143.857 159.84C143.857 158.424 144.809 157.552 145.809 157.552C146.913 157.552 147.537 158.344 147.537 159.592C147.537 159.744 147.529 159.896 147.505 160.008H144.577C144.633 160.928 145.193 161.528 146.025 161.528C146.441 161.528 146.785 161.392 147.105 161.176L147.369 161.664C146.985 161.912 146.529 162.112 145.937 162.112ZM144.569 159.48H146.897C146.897 158.608 146.505 158.136 145.817 158.136C145.209 158.136 144.665 158.624 144.569 159.48ZM150.087 162.112C148.999 162.112 148.295 161.288 148.295 159.84C148.295 158.424 149.191 157.552 150.183 157.552C150.687 157.552 151.023 157.736 151.399 158.056L151.367 157.304V155.64H152.095V162H151.495L151.431 161.488H151.415C151.071 161.832 150.615 162.112 150.087 162.112ZM150.247 161.496C150.655 161.496 151.007 161.296 151.367 160.904V158.624C150.999 158.288 150.663 158.16 150.303 158.16C149.607 158.16 149.055 158.84 149.055 159.832C149.055 160.872 149.487 161.496 150.247 161.496ZM157.269 162.112C156.869 162.112 156.413 161.904 156.037 161.552H156.013L155.941 162H155.365V155.64H156.093V157.376L156.061 158.16C156.461 157.816 156.941 157.552 157.429 157.552C158.549 157.552 159.157 158.424 159.157 159.76C159.157 161.248 158.269 162.112 157.269 162.112ZM157.157 161.496C157.869 161.496 158.405 160.848 158.405 159.776C158.405 158.808 158.077 158.16 157.253 158.16C156.885 158.16 156.501 158.368 156.093 158.76V161.048C156.469 161.376 156.869 161.496 157.157 161.496ZM160.32 163.88C160.12 163.88 159.952 163.848 159.816 163.792L159.96 163.208C160.04 163.24 160.168 163.272 160.288 163.272C160.776 163.272 161.088 162.872 161.272 162.336L161.368 162.008L159.624 157.656H160.376L161.264 160.072C161.4 160.456 161.544 160.896 161.688 161.296H161.728C161.848 160.896 161.976 160.464 162.088 160.072L162.872 157.656H163.584L161.944 162.368C161.64 163.224 161.192 163.88 160.32 163.88ZM168.496 162.112C167.032 162.112 165.944 160.976 165.944 159.072C165.944 157.184 167.056 156.032 168.544 156.032C169.256 156.032 169.808 156.376 170.152 156.752L169.744 157.232C169.44 156.904 169.048 156.68 168.552 156.68C167.44 156.68 166.704 157.592 166.704 159.056C166.704 160.536 167.408 161.456 168.528 161.456C169.08 161.456 169.512 161.216 169.888 160.8L170.288 161.264C169.824 161.808 169.256 162.112 168.496 162.112ZM171.318 162V155.64H172.046V157.376L172.022 158.272C172.422 157.88 172.862 157.552 173.462 157.552C174.374 157.552 174.79 158.144 174.79 159.248V162H174.054V159.344C174.054 158.528 173.806 158.184 173.23 158.184C172.79 158.184 172.478 158.416 172.046 158.848V162H171.318ZM177.177 162.112C176.449 162.112 175.905 161.656 175.905 160.872C175.905 159.928 176.721 159.456 178.569 159.248C178.569 158.688 178.393 158.152 177.681 158.152C177.169 158.152 176.713 158.392 176.377 158.624L176.089 158.112C176.489 157.856 177.097 157.552 177.793 157.552C178.857 157.552 179.305 158.256 179.305 159.336V162H178.705L178.641 161.488H178.609C178.201 161.832 177.713 162.112 177.177 162.112ZM177.377 161.52C177.801 161.52 178.153 161.32 178.569 160.944V159.736C177.105 159.904 176.617 160.264 176.617 160.824C176.617 161.32 176.953 161.52 177.377 161.52ZM181.905 162.112C180.977 162.112 180.673 161.528 180.673 160.664V158.248H180.025V157.704L180.705 157.656L180.785 156.432H181.401V157.656H182.577V158.248H181.401V160.68C181.401 161.208 181.569 161.52 182.073 161.52C182.225 161.52 182.425 161.456 182.561 161.4L182.705 161.944C182.465 162.032 182.177 162.112 181.905 162.112ZM185.928 162.112C184.392 162.112 183.288 160.976 183.288 159.072C183.288 157.184 184.424 156.032 185.976 156.032C186.784 156.032 187.32 156.4 187.664 156.752L187.256 157.232C186.96 156.928 186.584 156.68 185.992 156.68C184.808 156.68 184.048 157.592 184.048 159.056C184.048 160.536 184.744 161.456 186 161.456C186.424 161.456 186.832 161.328 187.056 161.12V159.584H185.816V158.968H187.744V161.432C187.36 161.824 186.72 162.112 185.928 162.112ZM189.14 162V156.136H190.812C192.124 156.136 193.012 156.576 193.012 157.864C193.012 159.096 192.132 159.672 190.844 159.672H189.884V162H189.14ZM189.884 159.072H190.756C191.78 159.072 192.276 158.696 192.276 157.864C192.276 157.008 191.756 156.744 190.716 156.744H189.884V159.072ZM195.176 162V156.76H193.408V156.136H197.696V156.76H195.928V162H195.176Z" fill="white"/>
<rect x="104.5" y="149.5" width="109" height="19" rx="9.5" stroke="url(#paint17_linear_3781_20985)" stroke-opacity="0.3"/>
</g>
</g>
<defs>
<linearGradient id="paint0_linear_3781_20985" x1="318" y1="173" x2="-2.85165e-06" y2="12" gradientUnits="userSpaceOnUse">
<stop stop-color="white" stop-opacity="0.3"/>
<stop offset="0.489583" stop-color="white"/>
<stop offset="1" stop-color="white" stop-opacity="0.3"/>
</linearGradient>
<linearGradient id="paint1_linear_3781_20985" x1="131.5" y1="65" x2="131.5" y2="156" gradientUnits="userSpaceOnUse">
<stop offset="0.375" stop-color="white" stop-opacity="0"/>
<stop offset="1" stop-color="white"/>
</linearGradient>
<linearGradient id="paint2_linear_3781_20985" x1="104.079" y1="110.5" x2="159.079" y2="110.5" gradientUnits="userSpaceOnUse">
<stop stop-color="white" stop-opacity="0.3"/>
<stop offset="0.510215" stop-color="white"/>
<stop offset="1" stop-color="white" stop-opacity="0.3"/>
</linearGradient>
<linearGradient id="paint3_linear_3781_20985" x1="214" y1="41" x2="214" y2="89" gradientUnits="userSpaceOnUse">
<stop stop-opacity="0"/>
<stop offset="1"/>
</linearGradient>
<linearGradient id="paint4_linear_3781_20985" x1="214" y1="41" x2="214" y2="89" gradientUnits="userSpaceOnUse">
<stop stop-color="white" stop-opacity="0.3"/>
<stop offset="1"/>
</linearGradient>
<linearGradient id="paint5_linear_3781_20985" x1="159" y1="41" x2="159" y2="89" gradientUnits="userSpaceOnUse">
<stop stop-opacity="0"/>
<stop offset="1"/>
</linearGradient>
<linearGradient id="paint6_linear_3781_20985" x1="159" y1="41" x2="159" y2="89" gradientUnits="userSpaceOnUse">
<stop stop-color="white" stop-opacity="0.3"/>
<stop offset="1"/>
</linearGradient>
<linearGradient id="paint7_linear_3781_20985" x1="186.5" y1="65" x2="186.5" y2="156" gradientUnits="userSpaceOnUse">
<stop offset="0.375" stop-color="white" stop-opacity="0"/>
<stop offset="1" stop-color="white"/>
</linearGradient>
<linearGradient id="paint8_linear_3781_20985" x1="213.921" y1="110.5" x2="158.921" y2="110.5" gradientUnits="userSpaceOnUse">
<stop stop-color="white" stop-opacity="0.3"/>
<stop offset="0.510215" stop-color="white"/>
<stop offset="1" stop-color="white" stop-opacity="0.3"/>
</linearGradient>
<linearGradient id="paint9_linear_3781_20985" x1="242" y1="65" x2="77" y2="65" gradientUnits="userSpaceOnUse">
<stop stop-color="white" stop-opacity="0"/>
<stop offset="0.505208" stop-color="white"/>
<stop offset="1" stop-color="white" stop-opacity="0"/>
</linearGradient>
<linearGradient id="paint10_linear_3781_20985" x1="77" y1="101" x2="242" y2="29" gradientUnits="userSpaceOnUse">
<stop stop-color="white" stop-opacity="0.3"/>
<stop offset="0.510215" stop-color="white"/>
<stop offset="1" stop-color="white" stop-opacity="0.3"/>
</linearGradient>
<linearGradient id="paint11_linear_3781_20985" x1="159" y1="88.5" x2="159" y2="28.5" gradientUnits="userSpaceOnUse">
<stop stop-color="white" stop-opacity="0"/>
<stop offset="1" stop-color="white"/>
</linearGradient>
<linearGradient id="paint12_linear_3781_20985" x1="77" y1="88.5" x2="231.151" y2="7.78104" gradientUnits="userSpaceOnUse">
<stop stop-color="white" stop-opacity="0.3"/>
<stop offset="0.510215" stop-color="white"/>
<stop offset="1" stop-color="white" stop-opacity="0.3"/>
</linearGradient>
<linearGradient id="paint13_linear_3781_20985" x1="159" y1="37" x2="159" y2="93" gradientUnits="userSpaceOnUse">
<stop stop-color="white"/>
<stop offset="1"/>
</linearGradient>
<linearGradient id="paint14_linear_3781_20985" x1="159" y1="46.667" x2="159" y2="83.3337" gradientUnits="userSpaceOnUse">
<stop stop-color="white"/>
<stop offset="1" stop-color="white" stop-opacity="0.3"/>
</linearGradient>
<linearGradient id="paint15_linear_3781_20985" x1="131.081" y1="65" x2="187.081" y2="65" gradientUnits="userSpaceOnUse">
<stop stop-color="white" stop-opacity="0.3"/>
<stop offset="0.510215" stop-color="white"/>
<stop offset="1" stop-color="white" stop-opacity="0.3"/>
</linearGradient>
<linearGradient id="paint16_linear_3781_20985" x1="159" y1="149" x2="159" y2="169" gradientUnits="userSpaceOnUse">
<stop stop-color="white" stop-opacity="0"/>
<stop offset="1" stop-color="white"/>
</linearGradient>
<linearGradient id="paint17_linear_3781_20985" x1="159" y1="149" x2="159" y2="169" gradientUnits="userSpaceOnUse">
<stop stop-color="white"/>
<stop offset="1" stop-color="white" stop-opacity="0.5"/>
</linearGradient>
<clipPath id="clip0_3781_20985">
<rect width="318" height="185" fill="white"/>
</clipPath>
<clipPath id="clip1_3781_20985">
<rect width="318" height="185" fill="white"/>
</clipPath>
</defs>
</svg>
