<svg width="318" height="185" viewBox="0 0 318 185" fill="none" xmlns="http://www.w3.org/2000/svg">
<g clip-path="url(#clip0_3781_20987)">
<g clip-path="url(#clip1_3781_20987)">
<rect x="3" y="25" width="72" height="64" rx="5" fill="url(#paint0_linear_3781_20987)" fill-opacity="0.08"/>
<path fill-rule="evenodd" clip-rule="evenodd" d="M39 35.5C27.1259 35.5 17.5 45.1259 17.5 57C17.5 60.7126 18.4423 64.2092 20.1015 67.2597L18.5253 75.7254C18.4348 76.2115 18.5897 76.711 18.9393 77.0607C19.289 77.4103 19.7884 77.5652 20.2745 77.4747L28.7403 75.8985C31.7907 77.5577 35.2874 78.5 39 78.5C50.874 78.5 60.5 68.874 60.5 57C60.5 45.1259 50.874 35.5 39 35.5ZM20.5 57C20.5 46.7827 28.7827 38.5 39 38.5C49.2172 38.5 57.5 46.7827 57.5 57C57.5 67.2172 49.2172 75.5 39 75.5C35.6279 75.5 32.4707 74.5991 29.7511 73.026C29.4412 72.8467 29.0774 72.7842 28.7255 72.8497L21.8748 74.1252L23.1503 67.2746C23.2158 66.9226 23.1533 66.5588 22.9741 66.2489C21.4009 63.5293 20.5 60.3721 20.5 57ZM26.5 57C26.5 55.6195 27.6192 54.5 29 54.5C30.3808 54.5 31.5 55.6195 31.5 57C31.5 58.3805 30.3808 59.5 29 59.5C27.6192 59.5 26.5 58.3805 26.5 57ZM36.5 57C36.5 55.6194 37.6194 54.5 39 54.5C40.3806 54.5 41.5 55.6194 41.5 57C41.5 58.3806 40.3806 59.5 39 59.5C37.6194 59.5 36.5 58.3806 36.5 57ZM46.5 57C46.5 55.6194 47.6194 54.5 49 54.5C50.3806 54.5 51.5 55.6194 51.5 57C51.5 58.3806 50.3806 59.5 49 59.5C47.6194 59.5 46.5 58.3806 46.5 57Z" fill="url(#paint1_linear_3781_20987)" fill-opacity="0.4"/>
<rect x="3.25" y="25.25" width="71.5" height="63.5" rx="4.75" stroke="url(#paint2_linear_3781_20987)" stroke-opacity="0.3" stroke-width="0.5"/>
<rect x="83" y="25" width="72" height="64" rx="5" fill="url(#paint3_linear_3781_20987)" fill-opacity="0.08"/>
<g clip-path="url(#clip2_3781_20987)">
<path fill-rule="evenodd" clip-rule="evenodd" d="M114.5 39C114.5 38.1716 113.828 37.5 113 37.5C112.172 37.5 111.5 38.1716 111.5 39V41.5H99C98.1716 41.5 97.5 42.1716 97.5 43C97.5 43.8284 98.1716 44.5 99 44.5H119.902C118.372 48.4856 115.884 52.3256 112.986 55.8708C112.27 54.9983 111.489 53.984 110.761 52.988C109.608 51.4107 108.679 50.003 108.342 49.3292C107.971 48.5882 107.07 48.2879 106.329 48.6584C105.588 49.0288 105.288 49.9299 105.658 50.6708C106.121 51.597 107.192 53.1893 108.339 54.7584C109.196 55.9302 110.145 57.157 111.006 58.1818C108.058 61.4721 104.882 64.4112 102.024 66.8611C101.395 67.4002 101.322 68.3472 101.861 68.9762C102.4 69.6052 103.347 69.678 103.976 69.1389C106.844 66.6804 110.064 63.7078 113.085 60.3567L117.956 65.0772C118.551 65.6537 119.501 65.6388 120.077 65.0438C120.654 64.4489 120.639 63.4993 120.044 62.9228L115.05 58.0839C118.424 54.0082 121.414 49.4089 123.093 44.5H127C127.828 44.5 128.5 43.8284 128.5 43C128.5 42.1716 127.828 41.5 127 41.5H114.5V39ZM131.402 53.466C131.18 52.8844 130.622 52.5 130 52.5C129.378 52.5 128.82 52.8844 128.598 53.466L122.884 68.466L120.598 74.466C120.303 75.2401 120.692 76.1068 121.466 76.4017C122.24 76.6967 123.107 76.3082 123.402 75.534L125.319 70.5H134.68L136.598 75.534C136.893 76.3082 137.76 76.6967 138.534 76.4017C139.308 76.1068 139.697 75.2401 139.402 74.466L137.116 68.466L131.402 53.466ZM130 58.2136L133.538 67.5H126.462L130 58.2136Z" fill="url(#paint4_linear_3781_20987)" fill-opacity="0.4"/>
</g>
<rect x="83.25" y="25.25" width="71.5" height="63.5" rx="4.75" stroke="url(#paint5_linear_3781_20987)" stroke-opacity="0.3" stroke-width="0.5"/>
<rect x="163" y="25" width="72" height="64" rx="5" fill="url(#paint6_linear_3781_20987)" fill-opacity="0.08"/>
<g clip-path="url(#clip3_3781_20987)">
<path fill-rule="evenodd" clip-rule="evenodd" d="M211.283 42.4041C210.306 41.4278 208.723 41.4278 207.747 42.4041L205.848 44.3034L212.212 50.6674L214.111 48.7681C214.111 48.7681 214.111 48.7681 214.111 48.7681C215.087 47.7917 215.087 46.2088 214.111 45.2325L211.283 42.4041ZM210.09 52.7887L203.726 46.4247L185.556 64.5953C185.556 64.5953 185.556 64.5953 185.556 64.5953C185.141 65.0105 184.885 65.5584 184.833 66.1431L184.349 71.6241C184.322 71.9341 184.581 72.1935 184.891 72.1661L190.372 71.6819C190.956 71.6303 191.504 71.3745 191.92 70.9594C191.92 70.9595 191.92 70.9594 191.92 70.9594L210.09 52.7887ZM205.626 40.2828C207.774 38.1349 211.256 38.1349 213.404 40.2827L216.232 43.1112C218.38 45.2591 218.38 48.7414 216.232 50.8893L194.041 73.0807C193.128 73.9936 191.922 74.5567 190.636 74.6703L185.155 75.1544C182.985 75.3463 181.169 73.5301 181.361 71.3601L181.845 65.8791C181.958 64.5926 182.521 63.3873 183.434 62.4741L205.626 40.2828Z" fill="url(#paint7_linear_3781_20987)" fill-opacity="0.4"/>
</g>
<rect x="163.25" y="25.25" width="71.5" height="63.5" rx="4.75" stroke="url(#paint8_linear_3781_20987)" stroke-opacity="0.3" stroke-width="0.5"/>
<rect x="243" y="25" width="72" height="64" rx="5" fill="url(#paint9_linear_3781_20987)" fill-opacity="0.08"/>
<g clip-path="url(#clip4_3781_20987)">
<path fill-rule="evenodd" clip-rule="evenodd" d="M279 51.5581L277.626 54.4701C277.414 54.9215 276.99 55.2375 276.497 55.3129L273.287 55.804L275.653 58.2164C275.988 58.5575 276.14 59.0378 276.063 59.5094L275.519 62.8272L278.277 61.3095C278.727 61.0616 279.273 61.0616 279.723 61.3095L282.481 62.8272L281.937 59.5094C281.86 59.0377 282.012 58.5575 282.347 58.2164L284.713 55.804L281.503 55.3129C281.01 55.2375 280.586 54.9215 280.374 54.4701L279 51.5581ZM282.731 64.3514C282.731 64.3511 282.731 64.3517 282.731 64.3514V64.3514ZM281.009 48.7843C280.201 47.0719 277.799 47.0719 276.991 48.7843C276.991 48.7844 276.991 48.7842 276.991 48.7843L275.254 52.4682L271.396 53.0584C271.396 53.0584 271.396 53.0584 271.396 53.0584C269.5 53.3486 268.928 55.6438 270.15 56.8898L272.979 59.7745L272.309 63.866C272.309 63.866 272.309 63.866 272.309 63.866C272.031 65.5638 273.799 67.1982 275.568 66.2249L279 64.3358L282.432 66.2249C284.201 67.1978 285.97 65.5641 285.691 63.8658L285.021 59.7745L287.85 56.89C289.072 55.6441 288.501 53.3486 286.604 53.0585C286.604 53.0585 286.604 53.0585 286.604 53.0585L282.746 52.4682L281.009 48.7843C281.009 48.7844 281.009 48.7842 281.009 48.7843Z" fill="url(#paint10_linear_3781_20987)" fill-opacity="0.4"/>
<path fill-rule="evenodd" clip-rule="evenodd" d="M296.5 75.8C296.5 77.2912 295.291 78.5 293.8 78.5H264.2C262.709 78.5 261.5 77.2913 261.5 75.8V38.2C261.5 36.7088 262.709 35.5 264.2 35.5H287.503C288.219 35.5 288.906 35.7845 289.412 36.291L295.709 42.5878C296.215 43.0942 296.5 43.7811 296.5 44.4971V75.8ZM264.5 75.5V38.5H285.5V43.8C285.5 45.2911 286.709 46.5 288.2 46.5H293.5V75.5H264.5ZM292.379 43.5H288.5V39.6214L292.379 43.5Z" fill="url(#paint11_linear_3781_20987)" fill-opacity="0.4"/>
</g>
<rect x="243.25" y="25.25" width="71.5" height="63.5" rx="4.75" stroke="url(#paint12_linear_3781_20987)" stroke-opacity="0.3" stroke-width="0.5"/>
<rect x="-37" y="97" width="72" height="64" rx="5" fill="url(#paint13_linear_3781_20987)" fill-opacity="0.08"/>
<g clip-path="url(#clip5_3781_20987)">
<path fill-rule="evenodd" clip-rule="evenodd" d="M-11.5 121C-11.5 118.349 -10.6286 116.293 -9.01224 114.879C-7.36969 113.442 -4.76646 112.5 -1 112.5C2.76646 112.5 5.36969 113.442 7.01224 114.879C8.62858 116.293 9.5 118.349 9.5 121C9.5 122.801 9.16513 123.927 8.73682 124.736C8.29393 125.572 7.70234 126.176 6.93934 126.939L6.89551 126.983C6.16658 127.712 5.28047 128.598 4.61182 129.861C3.91513 131.177 3.5 132.801 3.5 135C3.5 135.828 4.17157 136.5 5 136.5C5.82843 136.5 6.5 135.828 6.5 135C6.5 133.199 6.83487 132.073 7.26318 131.264C7.70607 130.428 8.29766 129.824 9.06066 129.061L9.10448 129.017C9.83342 128.288 10.7195 127.402 11.3882 126.139C12.0849 124.823 12.5 123.199 12.5 121C12.5 117.651 11.3714 114.707 8.98776 112.621C6.63031 110.558 3.23354 109.5 -1 109.5C-5.23354 109.5 -8.63031 110.558 -10.9878 112.621C-13.3714 114.707 -14.5 117.651 -14.5 121C-14.5 123.199 -14.0849 124.823 -13.3882 126.139C-12.7195 127.402 -11.8334 128.288 -11.1045 129.017L-11.0607 129.061C-10.2977 129.824 -9.70607 130.428 -9.26318 131.264C-8.83487 132.073 -8.5 133.199 -8.5 135C-8.5 135.828 -7.82843 136.5 -7 136.5C-6.17157 136.5 -5.5 135.828 -5.5 135C-5.5 132.801 -5.91513 131.177 -6.61182 129.861C-7.28047 128.598 -8.16657 127.712 -8.8955 126.983L-8.93934 126.939C-9.70234 126.176 -10.2939 125.572 -10.7368 124.736C-11.1651 123.927 -11.5 122.801 -11.5 121ZM-8.5 141C-8.5 140.172 -7.82843 139.5 -7 139.5H5C5.82843 139.5 6.5 140.172 6.5 141C6.5 141.828 5.82843 142.5 5 142.5H-7C-7.82843 142.5 -8.5 141.828 -8.5 141ZM-6.5 147C-6.5 146.172 -5.82843 145.5 -5 145.5H3C3.82843 145.5 4.5 146.172 4.5 147C4.5 147.828 3.82843 148.5 3 148.5H-5C-5.82843 148.5 -6.5 147.828 -6.5 147Z" fill="url(#paint14_linear_3781_20987)" fill-opacity="0.4"/>
</g>
<rect x="-36.75" y="97.25" width="71.5" height="63.5" rx="4.75" stroke="url(#paint15_linear_3781_20987)" stroke-opacity="0.3" stroke-width="0.5"/>
<rect x="43" y="97" width="72" height="64" rx="5" fill="url(#paint16_linear_3781_20987)" fill-opacity="0.08"/>
<g clip-path="url(#clip6_3781_20987)">
<path fill-rule="evenodd" clip-rule="evenodd" d="M62.5 110.5V117.5H73.5V110.5H62.5ZM59.5 110.2C59.5 108.709 60.7088 107.5 62.2 107.5H73.8C75.2912 107.5 76.5 108.709 76.5 110.2V117.8C76.5 119.291 75.2912 120.5 73.8 120.5H69.5V126C69.5 127.381 70.6193 128.5 72 128.5H86C87.3808 128.5 88.5 127.381 88.5 126V120.5H84.2C82.7088 120.5 81.5 119.291 81.5 117.8V110.2C81.5 108.709 82.7088 107.5 84.2 107.5H95.8C97.2912 107.5 98.5 108.709 98.5 110.2V117.8C98.5 119.291 97.2912 120.5 95.8 120.5H91.5V126C91.5 129.038 89.0376 131.5 86 131.5H80.5V137.5H84.8C86.2912 137.5 87.5 138.709 87.5 140.2V147.8C87.5 149.291 86.2912 150.5 84.8 150.5H73.2C71.7088 150.5 70.5 149.291 70.5 147.8V140.2C70.5 138.709 71.7088 137.5 73.2 137.5H77.5V131.5H72C68.9624 131.5 66.5 129.038 66.5 126V120.5H62.2C60.7088 120.5 59.5 119.291 59.5 117.8V110.2ZM73.5 140.5V147.5H84.5V140.5H73.5ZM84.5 117.5V110.5H95.5V117.5H84.5Z" fill="url(#paint17_linear_3781_20987)" fill-opacity="0.4"/>
</g>
<rect x="43.25" y="97.25" width="71.5" height="63.5" rx="4.75" stroke="url(#paint18_linear_3781_20987)" stroke-opacity="0.3" stroke-width="0.5"/>
<rect x="123" y="97" width="72" height="64" rx="5" fill="url(#paint19_linear_3781_20987)" fill-opacity="0.08"/>
<g clip-path="url(#clip7_3781_20987)">
<path fill-rule="evenodd" clip-rule="evenodd" d="M154 110.5C152.79 110.5 151.878 111.236 151.338 112.047C150.79 112.868 150.5 113.917 150.5 115C150.5 116.083 150.79 117.132 151.338 117.953C151.878 118.764 152.79 119.5 154 119.5C155.21 119.5 156.122 118.764 156.662 117.953C157.21 117.132 157.5 116.083 157.5 115C157.5 113.917 157.21 112.868 156.662 112.047C156.122 111.236 155.21 110.5 154 110.5ZM164 110.5C162.79 110.5 161.878 111.236 161.338 112.047C160.79 112.868 160.5 113.917 160.5 115C160.5 116.083 160.79 117.132 161.338 117.953C161.878 118.764 162.79 119.5 164 119.5C165.21 119.5 166.122 118.764 166.662 117.953C167.21 117.132 167.5 116.083 167.5 115C167.5 113.917 167.21 112.868 166.662 112.047C166.122 111.236 165.21 110.5 164 110.5ZM144 117.5C142.79 117.5 141.878 118.236 141.338 119.047C140.79 119.868 140.5 120.917 140.5 122C140.5 123.083 140.79 124.132 141.338 124.953C141.878 125.764 142.79 126.5 144 126.5C145.21 126.5 146.122 125.764 146.662 124.953C147.21 124.132 147.5 123.083 147.5 122C147.5 120.917 147.21 119.868 146.662 119.047C146.122 118.236 145.21 117.5 144 117.5ZM174 117.5C172.79 117.5 171.878 118.236 171.338 119.047C170.79 119.868 170.5 120.917 170.5 122C170.5 123.083 170.79 124.132 171.338 124.953C171.878 125.764 172.79 126.5 174 126.5C175.21 126.5 176.122 125.764 176.662 124.953C177.21 124.132 177.5 123.083 177.5 122C177.5 120.917 177.21 119.868 176.662 119.047C176.122 118.236 175.21 117.5 174 117.5ZM155.461 123.141C156.448 122.71 157.601 122.5 159 122.5C160.399 122.5 161.552 122.71 162.539 123.141C163.536 123.578 164.267 124.199 164.871 124.878C165.34 125.406 165.767 126.013 166.159 126.572L166.16 126.573C166.245 126.694 166.328 126.812 166.41 126.928C166.894 127.608 167.399 128.278 168.061 128.939C168.448 129.327 168.959 129.69 169.634 130.156L169.735 130.226L169.735 130.226L169.735 130.226C170.351 130.651 171.08 131.154 171.753 131.76C173.257 133.113 174.5 134.997 174.5 138C174.5 142.694 171.46 145.782 168.319 146.466C166.707 146.817 165.101 146.808 163.57 146.729C163.047 146.702 162.543 146.668 162.047 146.635L162.047 146.635L162.046 146.634L162.046 146.634C161.032 146.566 160.049 146.5 159 146.5C157.932 146.5 156.95 146.576 155.935 146.655L155.934 146.655C155.444 146.694 154.945 146.732 154.425 146.763C152.896 146.855 151.283 146.866 149.637 146.455C146.66 145.712 143.5 142.736 143.5 138C143.5 134.997 144.743 133.113 146.247 131.76C146.92 131.154 147.649 130.651 148.265 130.226L148.366 130.156C149.041 129.69 149.552 129.327 149.939 128.939C150.601 128.278 151.106 127.608 151.59 126.928C151.672 126.812 151.755 126.694 151.84 126.573L151.841 126.572L151.841 126.572C152.233 126.013 152.66 125.406 153.129 124.878C153.733 124.199 154.464 123.578 155.461 123.141ZM154.035 128.666C153.519 129.392 152.899 130.222 152.061 131.061C151.448 131.673 150.709 132.185 150.071 132.625L150.019 132.661L150.018 132.661L150.018 132.661C149.364 133.113 148.779 133.517 148.253 133.99C147.257 134.887 146.5 136.003 146.5 138C146.5 141.264 148.628 143.111 150.363 143.545C151.559 143.843 152.806 143.855 154.246 143.769C154.659 143.744 155.1 143.71 155.561 143.674H155.561H155.561C156.634 143.591 157.814 143.5 159 143.5C160.15 143.5 161.307 143.577 162.373 143.649L162.374 143.649C162.845 143.681 163.298 143.711 163.725 143.733C165.183 143.808 166.467 143.799 167.681 143.534C169.421 143.155 171.5 141.306 171.5 138C171.5 136.003 170.743 134.887 169.747 133.99C169.221 133.517 168.636 133.113 167.982 132.661L167.982 132.661L167.981 132.661L167.929 132.625C167.291 132.185 166.552 131.673 165.939 131.061C165.101 130.222 164.481 129.392 163.965 128.666C163.859 128.517 163.759 128.375 163.664 128.241L163.664 128.24L163.664 128.24C163.278 127.692 162.974 127.259 162.629 126.872C162.233 126.426 161.839 126.11 161.336 125.89C160.823 125.665 160.101 125.5 159 125.5C157.899 125.5 157.177 125.665 156.664 125.89C156.161 126.11 155.767 126.426 155.371 126.872C155.026 127.259 154.722 127.692 154.336 128.24L154.336 128.241L154.335 128.241C154.241 128.375 154.141 128.517 154.035 128.666Z" fill="url(#paint20_linear_3781_20987)" fill-opacity="0.4"/>
</g>
<rect x="123.25" y="97.25" width="71.5" height="63.5" rx="4.75" stroke="url(#paint21_linear_3781_20987)" stroke-opacity="0.3" stroke-width="0.5"/>
<rect x="203" y="97" width="72" height="64" rx="5" fill="url(#paint22_linear_3781_20987)" fill-opacity="0.08"/>
<g clip-path="url(#clip8_3781_20987)">
<path fill-rule="evenodd" clip-rule="evenodd" d="M236.189 121.003H236.189H236.189H236.189H236.189H236.189H236.189C235.472 121 234.753 120.997 234.034 121.007C233.249 122.663 232.449 124.316 231.634 125.964C231.406 126.456 231.125 127.109 231.609 127.554C232.07 127.942 232.693 127.929 233.295 127.917H233.295H233.295H233.295H233.295H233.295H233.295C233.501 127.913 233.704 127.909 233.898 127.921C233.687 128.414 233.449 128.897 233.211 129.381C232.855 130.104 232.499 130.828 232.233 131.584C231.986 132.207 232.601 132.846 233.274 132.846C234.037 132.894 234.801 132.886 235.566 132.878H235.566H235.566H235.566H235.566H235.566H235.566C236.023 132.874 236.48 132.869 236.936 132.876L237.191 132.349L237.191 132.349C237.505 131.7 237.818 131.052 238.127 130.399C237.978 130.399 237.828 130.401 237.679 130.404H237.678H237.678H237.678H237.678H237.678H237.678H237.678C237.112 130.411 236.543 130.419 235.996 130.316C236.451 129.259 236.957 128.222 237.463 127.186L237.463 127.186L237.463 127.186C237.799 126.497 238.135 125.808 238.456 125.114C238.082 125.073 237.688 125.091 237.293 125.109C236.657 125.139 236.019 125.168 235.462 124.95C235.726 124.127 236.121 123.345 236.516 122.562C236.776 122.048 237.035 121.533 237.258 121.007C236.903 121.007 236.546 121.005 236.189 121.003ZM224.257 121.198H221.117C221.095 123.618 221.094 126.039 221.092 128.46V128.46V128.46V128.46V128.46V128.46V128.46V128.461V128.461V128.461V128.461V128.461V128.461C221.091 130.277 221.09 132.093 221.08 133.91C221.098 133.977 221.099 134.047 221.083 134.115C221.066 134.183 221.033 134.246 220.985 134.3C220.937 134.354 220.877 134.397 220.808 134.425C220.74 134.453 220.665 134.467 220.59 134.464C220.166 134.487 219.742 134.484 219.317 134.482C219.189 134.481 219.061 134.481 218.934 134.481C219.305 135.325 219.705 136.156 220.12 136.981C220.356 136.973 220.599 136.977 220.844 136.982H220.844H220.844H220.844H220.844H220.844H220.844C221.685 136.997 222.55 137.013 223.239 136.518C224.047 135.968 224.293 134.99 224.277 134.11C224.277 133.035 224.277 131.959 224.277 130.883V130.883V130.883V130.883V130.883V130.883V130.883V130.883V130.883V130.883V130.883V130.883V130.883C224.278 127.655 224.279 124.426 224.257 121.198ZM250.79 121.017H253.977V122.126C255.507 122.07 257.287 122.074 258.393 123.221C259.314 124.163 259.288 125.429 259.262 126.645C259.255 126.994 259.248 127.339 259.263 127.671C260.415 127.691 261.702 127.942 262.414 128.867C263.039 129.682 263.013 130.675 262.988 131.644V131.644V131.644V131.644V131.645V131.645C262.979 131.973 262.971 132.299 262.988 132.614C262.979 132.859 262.985 133.115 262.991 133.374V133.375V133.375V133.375V133.375V133.375C263.016 134.372 263.043 135.423 262.202 136.143C261.336 137.009 260.065 136.997 258.855 136.985H258.855C258.507 136.982 258.164 136.978 257.838 136.996C257.46 136.288 257.129 135.561 256.797 134.834L256.797 134.834C256.739 134.706 256.68 134.577 256.621 134.449C256.983 134.439 257.344 134.443 257.706 134.446H257.706H257.706H257.706H257.706H257.706C258.233 134.452 258.76 134.457 259.286 134.421C259.424 134.414 259.553 134.356 259.644 134.26C259.736 134.165 259.783 134.039 259.775 133.912C259.817 133.125 259.817 132.337 259.775 131.55C259.791 130.994 259.167 130.64 258.623 130.683C257.588 130.669 256.554 130.673 255.52 130.678H255.52H255.52H255.52H255.52H255.52H255.52H255.52H255.52H255.52H255.52C255.003 130.681 254.486 130.683 253.968 130.683V136.985H250.778V130.679H247.591V127.716H247.592C248.651 127.716 249.712 127.716 250.771 127.701C250.791 126.849 250.791 125.99 250.771 125.127C250.067 125.116 249.362 125.107 248.655 125.114V122.145H250.769L250.79 121.017ZM253.961 125.105C253.961 125.972 253.968 126.839 253.982 127.705H256.133C256.133 127.488 256.138 127.27 256.142 127.052V127.052C256.153 126.489 256.164 125.925 256.101 125.361C255.751 125.019 255.229 125.058 254.715 125.097C254.453 125.117 254.194 125.136 253.961 125.105ZM246.713 122.13H239.407C239.403 123.119 239.405 124.11 239.414 125.105H241.416V134.001C240.46 134.012 239.502 134.012 238.547 134.012H238.546C238.051 134.997 237.567 135.986 237.086 136.974H247.782V134.012C247.269 134.007 246.756 134.007 246.243 134.007C245.73 134.007 245.217 134.007 244.705 134.001V125.099H246.713V122.13ZM260.447 122.402C261.253 121.784 262.591 122.189 262.893 123.099C263.278 123.935 262.557 124.969 261.599 125.05C261.151 125.086 260.702 125.08 260.254 125.074C260.105 125.071 259.956 125.069 259.807 125.069C259.815 124.875 259.808 124.67 259.801 124.46C259.775 123.701 259.747 122.888 260.447 122.402ZM216.471 125.096C216.241 125.095 216.011 125.094 215.781 125.094C215.613 127.038 215.449 128.99 215.304 130.919C215.269 131.361 215.166 131.796 215 132.211C215.539 133.355 216.078 134.496 216.654 135.621C217.944 134.025 218.423 132.013 218.556 130.058C218.6 129.407 218.658 128.756 218.716 128.106L218.716 128.106V128.106C218.805 127.095 218.895 126.084 218.934 125.071C218.113 125.101 217.293 125.098 216.471 125.096ZM226.399 125.095H229.584C229.624 125.579 229.665 126.064 229.706 126.549L229.706 126.549C229.827 128.001 229.949 129.454 230.063 130.907C230.095 131.355 230.197 131.797 230.367 132.218C229.828 133.358 229.285 134.496 228.716 135.628C227.523 134.155 227.018 132.314 226.85 130.513C226.748 129.422 226.661 128.327 226.573 127.233L226.573 127.233C226.516 126.52 226.46 125.806 226.399 125.095ZM231.825 133.777C231.329 134.765 230.838 135.756 230.351 136.751C231.426 137.044 232.543 137.012 233.659 136.979C234.236 136.963 234.813 136.946 235.383 136.974C235.876 135.988 236.367 134.999 236.846 134.005C236.319 133.987 235.788 133.996 235.258 134.005C234.104 134.025 232.95 134.045 231.825 133.777Z" fill="url(#paint23_linear_3781_20987)" fill-opacity="0.4"/>
</g>
<rect x="203.25" y="97.25" width="71.5" height="63.5" rx="4.75" stroke="url(#paint24_linear_3781_20987)" stroke-opacity="0.3" stroke-width="0.5"/>
<rect x="283" y="97" width="72" height="64" rx="5" fill="url(#paint25_linear_3781_20987)" fill-opacity="0.08"/>
<g clip-path="url(#clip9_3781_20987)">
<path fill-rule="evenodd" clip-rule="evenodd" d="M307.5 129C307.5 122.619 312.776 117.5 319.218 117.5C322.244 117.5 325.013 118.629 327.094 120.488L325.096 122.725C323.55 121.345 321.488 120.5 319.218 120.5C314.372 120.5 310.5 124.337 310.5 129C310.5 133.663 314.372 137.5 319.218 137.5C322.272 137.5 324.225 136.389 325.47 134.946C326.375 133.898 326.952 132.617 327.258 131.333H320.682V128.333H330.608L330.496 129.937C330.339 132.194 329.543 134.818 327.741 136.906C325.9 139.041 323.102 140.5 319.218 140.5C312.776 140.5 307.5 135.381 307.5 129Z" fill="url(#paint26_linear_3781_20987)" fill-opacity="0.4"/>
<path fill-rule="evenodd" clip-rule="evenodd" d="M311 112.5C306.306 112.5 302.5 116.306 302.5 121V137C302.5 141.694 306.306 145.5 311 145.5H327C331.694 145.5 335.5 141.694 335.5 137V121C335.5 116.306 331.694 112.5 327 112.5H311ZM299.5 121C299.5 114.649 304.649 109.5 311 109.5H327C333.351 109.5 338.5 114.649 338.5 121V137C338.5 143.351 333.351 148.5 327 148.5H311C304.649 148.5 299.5 143.351 299.5 137V121Z" fill="url(#paint27_linear_3781_20987)" fill-opacity="0.4"/>
</g>
<rect x="283.25" y="97.25" width="71.5" height="63.5" rx="4.75" stroke="url(#paint28_linear_3781_20987)" stroke-opacity="0.3" stroke-width="0.5"/>
</g>
</g>
<defs>
<linearGradient id="paint0_linear_3781_20987" x1="39" y1="25" x2="39" y2="89" gradientUnits="userSpaceOnUse">
<stop stop-color="white" stop-opacity="0"/>
<stop offset="1" stop-color="white"/>
</linearGradient>
<linearGradient id="paint1_linear_3781_20987" x1="39" y1="35.5" x2="39" y2="78.5" gradientUnits="userSpaceOnUse">
<stop stop-color="white"/>
<stop offset="1" stop-color="white" stop-opacity="0.6"/>
</linearGradient>
<linearGradient id="paint2_linear_3781_20987" x1="3.10375" y1="57" x2="75.1037" y2="57" gradientUnits="userSpaceOnUse">
<stop stop-color="white" stop-opacity="0.3"/>
<stop offset="0.510215" stop-color="white"/>
<stop offset="1" stop-color="white" stop-opacity="0.3"/>
</linearGradient>
<linearGradient id="paint3_linear_3781_20987" x1="119" y1="25" x2="119" y2="89" gradientUnits="userSpaceOnUse">
<stop stop-color="white" stop-opacity="0"/>
<stop offset="1" stop-color="white"/>
</linearGradient>
<linearGradient id="paint4_linear_3781_20987" x1="118.5" y1="37.5" x2="118.5" y2="76.5004" gradientUnits="userSpaceOnUse">
<stop stop-color="white"/>
<stop offset="1" stop-color="white" stop-opacity="0.6"/>
</linearGradient>
<linearGradient id="paint5_linear_3781_20987" x1="83.1037" y1="57" x2="155.104" y2="57" gradientUnits="userSpaceOnUse">
<stop stop-color="white" stop-opacity="0.3"/>
<stop offset="0.510215" stop-color="white"/>
<stop offset="1" stop-color="white" stop-opacity="0.3"/>
</linearGradient>
<linearGradient id="paint6_linear_3781_20987" x1="199" y1="25" x2="199" y2="89" gradientUnits="userSpaceOnUse">
<stop stop-color="white" stop-opacity="0"/>
<stop offset="1" stop-color="white"/>
</linearGradient>
<linearGradient id="paint7_linear_3781_20987" x1="199.595" y1="38.6719" x2="199.595" y2="75.1684" gradientUnits="userSpaceOnUse">
<stop stop-color="white"/>
<stop offset="1" stop-color="white" stop-opacity="0.6"/>
</linearGradient>
<linearGradient id="paint8_linear_3781_20987" x1="163.104" y1="57" x2="235.104" y2="57" gradientUnits="userSpaceOnUse">
<stop stop-color="white" stop-opacity="0.3"/>
<stop offset="0.510215" stop-color="white"/>
<stop offset="1" stop-color="white" stop-opacity="0.3"/>
</linearGradient>
<linearGradient id="paint9_linear_3781_20987" x1="279" y1="25" x2="279" y2="89" gradientUnits="userSpaceOnUse">
<stop stop-color="white" stop-opacity="0"/>
<stop offset="1" stop-color="white"/>
</linearGradient>
<linearGradient id="paint10_linear_3781_20987" x1="279" y1="35.5" x2="279" y2="78.5" gradientUnits="userSpaceOnUse">
<stop stop-color="white"/>
<stop offset="1" stop-color="white" stop-opacity="0.6"/>
</linearGradient>
<linearGradient id="paint11_linear_3781_20987" x1="279" y1="35.5" x2="279" y2="78.5" gradientUnits="userSpaceOnUse">
<stop stop-color="white"/>
<stop offset="1" stop-color="white" stop-opacity="0.6"/>
</linearGradient>
<linearGradient id="paint12_linear_3781_20987" x1="243.104" y1="57" x2="315.104" y2="57" gradientUnits="userSpaceOnUse">
<stop stop-color="white" stop-opacity="0.3"/>
<stop offset="0.510215" stop-color="white"/>
<stop offset="1" stop-color="white" stop-opacity="0.3"/>
</linearGradient>
<linearGradient id="paint13_linear_3781_20987" x1="-1" y1="97" x2="-1" y2="161" gradientUnits="userSpaceOnUse">
<stop stop-color="white" stop-opacity="0"/>
<stop offset="1" stop-color="white"/>
</linearGradient>
<linearGradient id="paint14_linear_3781_20987" x1="-1" y1="109.5" x2="-1" y2="148.5" gradientUnits="userSpaceOnUse">
<stop stop-color="white"/>
<stop offset="1" stop-color="white" stop-opacity="0.6"/>
</linearGradient>
<linearGradient id="paint15_linear_3781_20987" x1="-36.8963" y1="129" x2="35.1037" y2="129" gradientUnits="userSpaceOnUse">
<stop stop-color="white" stop-opacity="0.3"/>
<stop offset="0.510215" stop-color="white"/>
<stop offset="1" stop-color="white" stop-opacity="0.3"/>
</linearGradient>
<linearGradient id="paint16_linear_3781_20987" x1="79" y1="97" x2="79" y2="161" gradientUnits="userSpaceOnUse">
<stop stop-color="white" stop-opacity="0"/>
<stop offset="1" stop-color="white"/>
</linearGradient>
<linearGradient id="paint17_linear_3781_20987" x1="79" y1="107.5" x2="79" y2="150.5" gradientUnits="userSpaceOnUse">
<stop stop-color="white"/>
<stop offset="1" stop-color="white" stop-opacity="0.6"/>
</linearGradient>
<linearGradient id="paint18_linear_3781_20987" x1="43.1037" y1="129" x2="115.104" y2="129" gradientUnits="userSpaceOnUse">
<stop stop-color="white" stop-opacity="0.3"/>
<stop offset="0.510215" stop-color="white"/>
<stop offset="1" stop-color="white" stop-opacity="0.3"/>
</linearGradient>
<linearGradient id="paint19_linear_3781_20987" x1="159" y1="97" x2="159" y2="161" gradientUnits="userSpaceOnUse">
<stop stop-color="white" stop-opacity="0"/>
<stop offset="1" stop-color="white"/>
</linearGradient>
<linearGradient id="paint20_linear_3781_20987" x1="159" y1="110.5" x2="159" y2="146.815" gradientUnits="userSpaceOnUse">
<stop stop-color="white"/>
<stop offset="1" stop-color="white" stop-opacity="0.6"/>
</linearGradient>
<linearGradient id="paint21_linear_3781_20987" x1="123.104" y1="129" x2="195.104" y2="129" gradientUnits="userSpaceOnUse">
<stop stop-color="white" stop-opacity="0.3"/>
<stop offset="0.510215" stop-color="white"/>
<stop offset="1" stop-color="white" stop-opacity="0.3"/>
</linearGradient>
<linearGradient id="paint22_linear_3781_20987" x1="239" y1="97" x2="239" y2="161" gradientUnits="userSpaceOnUse">
<stop stop-color="white" stop-opacity="0"/>
<stop offset="1" stop-color="white"/>
</linearGradient>
<linearGradient id="paint23_linear_3781_20987" x1="239" y1="121" x2="239" y2="137" gradientUnits="userSpaceOnUse">
<stop stop-color="white"/>
<stop offset="1" stop-color="white" stop-opacity="0.6"/>
</linearGradient>
<linearGradient id="paint24_linear_3781_20987" x1="203.104" y1="129" x2="275.104" y2="129" gradientUnits="userSpaceOnUse">
<stop stop-color="white" stop-opacity="0.3"/>
<stop offset="0.510215" stop-color="white"/>
<stop offset="1" stop-color="white" stop-opacity="0.3"/>
</linearGradient>
<linearGradient id="paint25_linear_3781_20987" x1="319" y1="97" x2="319" y2="161" gradientUnits="userSpaceOnUse">
<stop stop-color="white" stop-opacity="0"/>
<stop offset="1" stop-color="white"/>
</linearGradient>
<linearGradient id="paint26_linear_3781_20987" x1="319.054" y1="117.5" x2="319.054" y2="140.5" gradientUnits="userSpaceOnUse">
<stop stop-color="white"/>
<stop offset="1" stop-color="white" stop-opacity="0.6"/>
</linearGradient>
<linearGradient id="paint27_linear_3781_20987" x1="319" y1="109.5" x2="319" y2="148.5" gradientUnits="userSpaceOnUse">
<stop stop-color="white"/>
<stop offset="1" stop-color="white" stop-opacity="0.6"/>
</linearGradient>
<linearGradient id="paint28_linear_3781_20987" x1="283.104" y1="129" x2="355.104" y2="129" gradientUnits="userSpaceOnUse">
<stop stop-color="white" stop-opacity="0.3"/>
<stop offset="0.510215" stop-color="white"/>
<stop offset="1" stop-color="white" stop-opacity="0.3"/>
</linearGradient>
<clipPath id="clip0_3781_20987">
<rect width="318" height="185" fill="white"/>
</clipPath>
<clipPath id="clip1_3781_20987">
<rect width="318" height="185" fill="white"/>
</clipPath>
<clipPath id="clip2_3781_20987">
<rect width="48" height="48" fill="white" transform="translate(95 33)"/>
</clipPath>
<clipPath id="clip3_3781_20987">
<rect width="48" height="48" fill="white" transform="translate(175 33)"/>
</clipPath>
<clipPath id="clip4_3781_20987">
<rect width="48" height="48" fill="white" transform="translate(255 33)"/>
</clipPath>
<clipPath id="clip5_3781_20987">
<rect width="48" height="48" fill="white" transform="translate(-25 105)"/>
</clipPath>
<clipPath id="clip6_3781_20987">
<rect width="48" height="48" fill="white" transform="translate(55 105)"/>
</clipPath>
<clipPath id="clip7_3781_20987">
<rect width="48" height="48" fill="white" transform="translate(135 105)"/>
</clipPath>
<clipPath id="clip8_3781_20987">
<rect x="215" y="105" width="48" height="48" rx="5" fill="white"/>
</clipPath>
<clipPath id="clip9_3781_20987">
<rect width="48" height="48" fill="white" transform="translate(295 105)"/>
</clipPath>
</defs>
</svg>
