<svg width="208" height="91" viewBox="0 0 208 91" fill="none" xmlns="http://www.w3.org/2000/svg">
<g id="500" opacity="0.08">
<path d="M30.6968 90.5C16.6471 90.5 6.9658 85.2539 0 78.4922L9.56322 65.4352C14.5219 70.0984 20.6613 73.7124 27.6271 73.7124C36.1277 73.7124 41.4406 69.1658 41.4406 60.1891C41.4406 51.4456 36.1277 46.7824 28.5716 46.7824C23.7309 46.7824 21.3697 47.715 16.1748 50.9793L6.9658 45.0337L9.20903 2.01554H58.56V19.386H27.2729L25.9742 34.0751C29.1619 32.7927 31.7593 32.3264 35.0651 32.3264C49.9413 32.3264 62.4561 40.9534 62.4561 59.7228C62.4561 79.1917 47.58 90.5 30.6968 90.5Z" fill="black"/>
<path d="M105.004 90.5C86.4674 90.5 73.8345 74.8782 73.8345 45.0337C73.8345 15.1891 86.4674 0.5 105.004 0.5C123.54 0.5 136.054 15.3057 136.054 45.0337C136.054 74.8782 123.54 90.5 105.004 90.5ZM105.004 74.4119C111.261 74.4119 116.22 68.8161 116.22 45.0337C116.22 21.3679 111.261 16.3549 105.004 16.3549C98.7461 16.3549 93.6694 21.3679 93.6694 45.0337C93.6694 68.8161 98.7461 74.4119 105.004 74.4119Z" fill="black"/>
<path d="M176.949 90.5C158.413 90.5 145.78 74.8782 145.78 45.0337C145.78 15.1891 158.413 0.5 176.949 0.5C195.485 0.5 208 15.3057 208 45.0337C208 74.8782 195.485 90.5 176.949 90.5ZM176.949 74.4119C183.206 74.4119 188.165 68.8161 188.165 45.0337C188.165 21.3679 183.206 16.3549 176.949 16.3549C170.692 16.3549 165.615 21.3679 165.615 45.0337C165.615 68.8161 170.692 74.4119 176.949 74.4119Z" fill="black"/>
</g>
</svg>
