<svg width="208" height="91" viewBox="0 0 208 91" fill="none" xmlns="http://www.w3.org/2000/svg">
<path d="M30.9426 90.5C16.7804 90.5 7.0216 85.2539 0 78.4922L9.63982 65.4352C14.6382 70.0984 20.8268 73.7124 27.8484 73.7124C36.4171 73.7124 41.7726 69.1658 41.7726 60.1891C41.7726 51.4456 36.4171 46.7824 28.8005 46.7824C23.921 46.7824 21.5408 47.715 16.3044 50.9793L7.0216 45.0337L9.28279 2.01554H59.029V19.386H27.4913L26.1822 34.0751C29.3955 32.7927 32.0137 32.3264 35.346 32.3264C50.3413 32.3264 62.9564 40.9534 62.9564 59.7228C62.9564 79.1917 47.9611 90.5 30.9426 90.5Z" fill="black" fill-opacity="0.08"/>
<path d="M105.845 90.5C87.1601 90.5 74.426 74.8782 74.426 45.0337C74.426 15.1891 87.1601 0.5 105.845 0.5C124.529 0.5 137.144 15.3057 137.144 45.0337C137.144 74.8782 124.529 90.5 105.845 90.5ZM105.845 74.4119C112.152 74.4119 117.151 68.8161 117.151 45.0337C117.151 21.3679 112.152 16.3549 105.845 16.3549C99.5371 16.3549 94.4197 21.3679 94.4197 45.0337C94.4197 68.8161 99.5371 74.4119 105.845 74.4119Z" fill="black" fill-opacity="0.08"/>
<path d="M175.272 90.5C161.229 90.5 151.351 85.7202 144.925 78.3756L154.683 65.3186C160.039 70.215 166.227 73.7124 173.13 73.7124C181.342 73.7124 186.697 70.3316 186.697 63.8031C186.697 56.342 182.651 51.9119 164.085 51.9119V37.2228C179.2 37.2228 183.96 32.7927 183.96 25.9145C183.96 19.9689 180.39 16.7047 173.844 16.7047C167.894 16.7047 163.371 19.2694 158.016 23.9326L147.305 11.2254C155.517 4.46373 164.323 0.5 174.796 0.5C193.124 0.5 205.144 8.89378 205.144 24.399C205.144 33.0259 200.383 39.7876 190.982 43.5181V44.101C200.74 47.0155 208 54.0104 208 65.2021C208 81.4067 192.886 90.5 175.272 90.5Z" fill="black" fill-opacity="0.08"/>
</svg>
