<svg width="92" height="32" viewBox="0 0 92 32" fill="none" xmlns="http://www.w3.org/2000/svg">
<rect width="32" height="32" rx="8" fill="url(#paint0_linear_3844_3564)"/>
<rect x="5" y="10" width="22" height="12" rx="4" fill="black" stroke="white" stroke-width="1.5"/>
<path d="M23 14L21 16L23 18" stroke="white" stroke-width="1.5" stroke-linecap="round" stroke-linejoin="round"/>
<rect x="9" y="13" width="2" height="6" rx="1" fill="white"/>
<g style="mix-blend-mode:plus-darker">
<path d="M45.1531 21.682C42.7221 21.682 40.7591 19.94 40.7591 16.729C40.7591 13.557 42.7871 11.711 45.2311 11.711C46.4531 11.711 47.4281 12.283 48.0521 12.933L47.0381 14.168C46.5441 13.687 45.9981 13.362 45.2571 13.362C43.8141 13.362 42.7221 14.61 42.7221 16.664C42.7221 18.77 43.6971 20.018 45.2311 20.018C46.0501 20.018 46.7001 19.628 47.2071 19.069L48.2211 20.278C47.4281 21.201 46.4011 21.682 45.1531 21.682ZM49.6154 21.5V11.139H51.5264V13.752L51.4354 15.117C52.0074 14.571 52.7354 14.051 53.7234 14.051C55.2834 14.051 55.9724 15.143 55.9724 16.963V21.5H54.0614V17.21C54.0614 16.066 53.7364 15.689 53.0344 15.689C52.4364 15.689 52.0594 15.975 51.5264 16.495V21.5H49.6154ZM59.7118 21.682C58.4118 21.682 57.5668 20.772 57.5668 19.524C57.5668 17.977 58.8278 17.158 61.7528 16.833C61.7138 16.118 61.4148 15.585 60.5178 15.585C59.8418 15.585 59.1788 15.871 58.5158 16.274L57.8268 15C58.6848 14.48 59.7118 14.051 60.8688 14.051C62.7148 14.051 63.6638 15.143 63.6638 17.262V21.5H62.1038L61.9608 20.733H61.9088C61.2718 21.279 60.5438 21.682 59.7118 21.682ZM60.3358 20.187C60.8818 20.187 61.2848 19.94 61.7528 19.485V18.016C59.9718 18.237 59.3868 18.718 59.3868 19.381C59.3868 19.94 59.7768 20.187 60.3358 20.187ZM67.9461 21.682C66.2171 21.682 65.5541 20.59 65.5541 18.965V15.728H64.5401V14.311L65.6711 14.233L65.8791 12.257H67.4651V14.233H69.2721V15.728H67.4651V18.965C67.4651 19.797 67.8161 20.187 68.4531 20.187C68.7001 20.187 68.9731 20.096 69.1811 20.018L69.4931 21.409C69.1031 21.539 68.5961 21.682 67.9461 21.682ZM70.9218 21.5V11.88H74.0938C76.0698 11.88 77.5778 12.465 77.5778 14.259C77.5778 15.143 77.0968 16.04 76.2778 16.339V16.391C77.3048 16.638 78.0718 17.379 78.0718 18.666C78.0718 20.603 76.4598 21.5 74.3538 21.5H70.9218ZM72.8458 15.793H73.9638C75.1858 15.793 75.7058 15.312 75.7058 14.532C75.7058 13.687 75.1468 13.362 73.9898 13.362H72.8458V15.793ZM72.8458 20.018H74.1848C75.4848 20.018 76.1998 19.55 76.1998 18.562C76.1998 17.626 75.5108 17.223 74.1848 17.223H72.8458V20.018ZM81.3954 21.682C80.0954 21.682 79.2504 20.772 79.2504 19.524C79.2504 17.977 80.5114 17.158 83.4364 16.833C83.3974 16.118 83.0984 15.585 82.2014 15.585C81.5254 15.585 80.8624 15.871 80.1994 16.274L79.5104 15C80.3684 14.48 81.3954 14.051 82.5524 14.051C84.3984 14.051 85.3474 15.143 85.3474 17.262V21.5H83.7874L83.6444 20.733H83.5924C82.9554 21.279 82.2274 21.682 81.3954 21.682ZM82.0194 20.187C82.5654 20.187 82.9684 19.94 83.4364 19.485V18.016C81.6554 18.237 81.0704 18.718 81.0704 19.381C81.0704 19.94 81.4604 20.187 82.0194 20.187ZM87.2951 21.5V14.233H88.8421L88.9981 15.52H89.0371C89.5571 14.558 90.3501 14.051 91.1041 14.051C91.4941 14.051 91.7281 14.103 91.9491 14.207L91.6241 15.845C91.3641 15.78 91.1691 15.728 90.8571 15.728C90.2981 15.728 89.6091 16.118 89.2061 17.171V21.5H87.2951Z" fill="url(#paint1_linear_3844_3564)"/>
<path d="M45.1531 21.682C42.7221 21.682 40.7591 19.94 40.7591 16.729C40.7591 13.557 42.7871 11.711 45.2311 11.711C46.4531 11.711 47.4281 12.283 48.0521 12.933L47.0381 14.168C46.5441 13.687 45.9981 13.362 45.2571 13.362C43.8141 13.362 42.7221 14.61 42.7221 16.664C42.7221 18.77 43.6971 20.018 45.2311 20.018C46.0501 20.018 46.7001 19.628 47.2071 19.069L48.2211 20.278C47.4281 21.201 46.4011 21.682 45.1531 21.682ZM49.6154 21.5V11.139H51.5264V13.752L51.4354 15.117C52.0074 14.571 52.7354 14.051 53.7234 14.051C55.2834 14.051 55.9724 15.143 55.9724 16.963V21.5H54.0614V17.21C54.0614 16.066 53.7364 15.689 53.0344 15.689C52.4364 15.689 52.0594 15.975 51.5264 16.495V21.5H49.6154ZM59.7118 21.682C58.4118 21.682 57.5668 20.772 57.5668 19.524C57.5668 17.977 58.8278 17.158 61.7528 16.833C61.7138 16.118 61.4148 15.585 60.5178 15.585C59.8418 15.585 59.1788 15.871 58.5158 16.274L57.8268 15C58.6848 14.48 59.7118 14.051 60.8688 14.051C62.7148 14.051 63.6638 15.143 63.6638 17.262V21.5H62.1038L61.9608 20.733H61.9088C61.2718 21.279 60.5438 21.682 59.7118 21.682ZM60.3358 20.187C60.8818 20.187 61.2848 19.94 61.7528 19.485V18.016C59.9718 18.237 59.3868 18.718 59.3868 19.381C59.3868 19.94 59.7768 20.187 60.3358 20.187ZM67.9461 21.682C66.2171 21.682 65.5541 20.59 65.5541 18.965V15.728H64.5401V14.311L65.6711 14.233L65.8791 12.257H67.4651V14.233H69.2721V15.728H67.4651V18.965C67.4651 19.797 67.8161 20.187 68.4531 20.187C68.7001 20.187 68.9731 20.096 69.1811 20.018L69.4931 21.409C69.1031 21.539 68.5961 21.682 67.9461 21.682ZM70.9218 21.5V11.88H74.0938C76.0698 11.88 77.5778 12.465 77.5778 14.259C77.5778 15.143 77.0968 16.04 76.2778 16.339V16.391C77.3048 16.638 78.0718 17.379 78.0718 18.666C78.0718 20.603 76.4598 21.5 74.3538 21.5H70.9218ZM72.8458 15.793H73.9638C75.1858 15.793 75.7058 15.312 75.7058 14.532C75.7058 13.687 75.1468 13.362 73.9898 13.362H72.8458V15.793ZM72.8458 20.018H74.1848C75.4848 20.018 76.1998 19.55 76.1998 18.562C76.1998 17.626 75.5108 17.223 74.1848 17.223H72.8458V20.018ZM81.3954 21.682C80.0954 21.682 79.2504 20.772 79.2504 19.524C79.2504 17.977 80.5114 17.158 83.4364 16.833C83.3974 16.118 83.0984 15.585 82.2014 15.585C81.5254 15.585 80.8624 15.871 80.1994 16.274L79.5104 15C80.3684 14.48 81.3954 14.051 82.5524 14.051C84.3984 14.051 85.3474 15.143 85.3474 17.262V21.5H83.7874L83.6444 20.733H83.5924C82.9554 21.279 82.2274 21.682 81.3954 21.682ZM82.0194 20.187C82.5654 20.187 82.9684 19.94 83.4364 19.485V18.016C81.6554 18.237 81.0704 18.718 81.0704 19.381C81.0704 19.94 81.4604 20.187 82.0194 20.187ZM87.2951 21.5V14.233H88.8421L88.9981 15.52H89.0371C89.5571 14.558 90.3501 14.051 91.1041 14.051C91.4941 14.051 91.7281 14.103 91.9491 14.207L91.6241 15.845C91.3641 15.78 91.1691 15.728 90.8571 15.728C90.2981 15.728 89.6091 16.118 89.2061 17.171V21.5H87.2951Z" fill="white"/>
</g>
<defs>
<linearGradient id="paint0_linear_3844_3564" x1="32" y1="0" x2="0" y2="32" gradientUnits="userSpaceOnUse">
<stop stop-color="#FF7A00"/>
<stop offset="1" stop-color="#FF0000"/>
</linearGradient>
<linearGradient id="paint1_linear_3844_3564" x1="92" y1="6.5" x2="79.7507" y2="40.0243" gradientUnits="userSpaceOnUse">
<stop stop-color="#FF7A00"/>
<stop offset="1" stop-color="#FF0000"/>
</linearGradient>
</defs>
</svg>
