<svg width="32" height="32" viewBox="0 0 32 32" fill="none" xmlns="http://www.w3.org/2000/svg">
<g clip-path="url(#clip0_9188_16728)">
<g clip-path="url(#clip1_9188_16728)">
<path fill-rule="evenodd" clip-rule="evenodd" d="M16.0002 2.33325C8.45227 2.33325 2.3335 8.45203 2.3335 15.9999C2.3335 23.5478 8.45227 29.6666 16.0002 29.6666C23.5481 29.6666 29.6668 23.5478 29.6668 15.9999C29.6668 8.45203 23.5481 2.33325 16.0002 2.33325ZM0.333496 15.9999C0.333496 7.34746 7.3477 0.333252 16.0002 0.333252C24.6526 0.333252 31.6668 7.34746 31.6668 15.9999C31.6668 24.6524 24.6526 31.6666 16.0002 31.6666C7.3477 31.6666 0.333496 24.6524 0.333496 15.9999Z" fill="url(#paint0_linear_9188_16728)"/>
<path fill-rule="evenodd" clip-rule="evenodd" d="M22.0403 12.6261C22.4308 13.0167 22.4308 13.6498 22.0403 14.0404L15.3736 20.707C14.9831 21.0975 14.3499 21.0975 13.9594 20.707L9.9594 16.707C9.56887 16.3165 9.56887 15.6833 9.9594 15.2928C10.3499 14.9023 10.9831 14.9023 11.3736 15.2928L14.6665 18.5857L20.6261 12.6261C21.0166 12.2356 21.6498 12.2356 22.0403 12.6261Z" fill="url(#paint1_linear_9188_16728)"/>
</g>
</g>
<defs>
<linearGradient id="paint0_linear_9188_16728" x1="31.6668" y1="0.333252" x2="0.333496" y2="31.6666" gradientUnits="userSpaceOnUse">
<stop stop-color="#F88720"/>
<stop offset="1" stop-color="#F5222D"/>
</linearGradient>
<linearGradient id="paint1_linear_9188_16728" x1="22.3332" y1="12.3333" x2="14.2552" y2="24.1395" gradientUnits="userSpaceOnUse">
<stop stop-color="#F88720"/>
<stop offset="1" stop-color="#F5222D"/>
</linearGradient>
<clipPath id="clip0_9188_16728">
<rect width="32" height="32" rx="16" fill="white"/>
</clipPath>
<clipPath id="clip1_9188_16728">
<rect width="32" height="32" fill="white"/>
</clipPath>
</defs>
</svg>
